<?xml version="1.0" encoding="UTF-8"?>
<svg width="390px" height="311px" viewBox="0 0 390 311" version="1.1" xmlns="http://www.w3.org/2000/svg" xmlns:xlink="http://www.w3.org/1999/xlink">
    <!-- Generator: Sketch 55.2 (78181) - https://sketchapp.com -->
    <title>Group 2</title>
    <desc>Created with Sketch.</desc>
    <defs>
        <rect id="path-1" x="0" y="0" width="390" height="311" rx="4"></rect>
        <mask id="mask-2" maskContentUnits="userSpaceOnUse" maskUnits="objectBoundingBox" x="0" y="0" width="390" height="311" fill="white">
            <use xlink:href="#path-1"></use>
        </mask>
    </defs>
    <g id="Page-1" stroke="none" stroke-width="1" fill="none" fill-rule="evenodd">
        <g id="Artboard" transform="translate(-263.000000, -113.000000)">
            <g id="Group-2" transform="translate(263.000000, 113.000000)">
                <g id="Group">
                    <use id="Rectangle" stroke="#979797" mask="url(#mask-2)" stroke-width="4" stroke-dasharray="14" xlink:href="#path-1"></use>
                    <g id="cloud-storage-uploading-option" transform="translate(159.000000, 34.000000)" fill="#CBCBCB" fill-rule="nonzero">
                        <path d="M69.8240489,29.5671901 C67.707192,26.9448375 65.0019939,25.2451206 61.7061905,24.4669846 C62.7462416,22.91124 63.2648023,21.1796171 63.2648023,19.2725115 C63.2648023,16.6123201 62.3141077,14.3414603 60.4137839,12.4591412 C58.5130606,10.5774813 56.219222,9.63625577 53.532268,9.63625577 C51.1241702,9.63625577 49.0206303,10.4142599 47.2213819,11.9702682 C45.7265581,8.35645806 43.3367045,5.45815858 40.0546176,3.27523794 C36.7725307,1.09165808 33.1540585,0 29.1994673,0 C23.8262252,0 19.2381484,1.88258282 15.4360359,5.64682557 C11.6336571,9.41014543 9.733067,13.9527879 9.733067,19.2729071 C9.733067,19.5990861 9.7585023,20.1387185 9.80910658,20.891277 C6.81826059,22.2715389 4.43586446,24.341734 2.66111917,27.1018622 C0.887039723,29.8627815 0,32.8735429 0,36.1365195 C0,40.7792305 1.66687828,44.7496754 4.99970265,48.0495679 C8.33266019,51.3505152 12.3439814,53 17.0331336,53 L58.4002663,53 C62.4298317,53 65.8705231,51.5878322 68.7224737,48.7652104 C71.5740247,45.9425887 73,42.5361672 73,38.5452867 C73,35.1826371 71.9410389,32.1903337 69.8240489,29.5671901 Z M48.3043134,28.5514734 C48.0628777,28.7893178 47.7784284,28.9083718 47.4493674,28.9083718 L38.9328007,28.9083718 L38.9328007,42.1588332 C38.9328007,42.4846167 38.8125489,42.7670239 38.5717791,43.0052638 C38.3303434,43.2442947 38.0458941,43.3626895 37.7168331,43.3626895 L30.4157012,43.3626895 C30.0862407,43.3626895 29.8011256,43.2444265 29.5603557,43.0052638 C29.3201186,42.7670239 29.199201,42.4846167 29.199201,42.1588332 L29.199201,28.9083718 L20.682501,28.9083718 C20.3280047,28.9083718 20.0362311,28.7956462 19.8085119,28.5704588 C19.5803931,28.3444803 19.4665335,28.0557446 19.4665335,27.7047792 C19.4665335,27.4033866 19.5930442,27.1019941 19.8463319,26.800997 L33.1916122,13.5890337 C33.4197309,13.3630552 33.7113714,13.2501978 34.066134,13.2501978 C34.4211629,13.2501978 34.7128034,13.3630552 34.9406558,13.5890337 L48.3240224,26.8385722 C48.5522744,27.064287 48.6652018,27.3528908 48.6652018,27.704911 C48.6652018,28.0304308 48.5448169,28.3137609 48.3043134,28.5514734 Z" id="Shape"></path>
                    </g>
                </g>
            </g>
        </g>
    </g>
</svg>