<?xml version="1.0" encoding="UTF-8"?>
<svg width="647px" height="248px" viewBox="0 0 647 248" version="1.1" xmlns="http://www.w3.org/2000/svg" xmlns:xlink="http://www.w3.org/1999/xlink">
    <!-- Generator: Sketch 55.2 (78181) - https://sketchapp.com -->
    <title>Group 3</title>
    <desc>Created with Sketch.</desc>
    <defs>
        <linearGradient x1="0%" y1="50%" x2="100.000015%" y2="50%" id="linearGradient-1">
            <stop stop-color="#5ACEED" offset="0%"></stop>
            <stop stop-color="#4F68CA" offset="100%"></stop>
        </linearGradient>
        <linearGradient x1="0%" y1="50.0000314%" x2="100%" y2="50.0000314%" id="linearGradient-2">
            <stop stop-color="#F87B58" offset="0%"></stop>
            <stop stop-color="#F87B58" offset="0%"></stop>
            <stop stop-color="#F89453" offset="41%"></stop>
            <stop stop-color="#F8C548" offset="71%"></stop>
            <stop stop-color="#F89C51" offset="100%"></stop>
        </linearGradient>
        <linearGradient x1="-1.45559335e-05%" y1="50.0000168%" x2="99.9999496%" y2="50.0000168%" id="linearGradient-3">
            <stop stop-color="#E1A1ED" offset="0%"></stop>
            <stop stop-color="#7658F4" offset="100%"></stop>
        </linearGradient>
        <linearGradient x1="-0.104299772%" y1="50.0001423%" x2="99.895599%" y2="50.0001423%" id="linearGradient-4">
            <stop stop-color="#5ACEED" offset="0%"></stop>
            <stop stop-color="#4F68CA" offset="100%"></stop>
        </linearGradient>
        <linearGradient x1="99.9999957%" y1="49.9999023%" x2="7.11404477e-06%" y2="49.9999023%" id="linearGradient-5">
            <stop stop-color="#5ACEED" offset="0%"></stop>
            <stop stop-color="#538BD6" offset="100%"></stop>
        </linearGradient>
        <linearGradient x1="-1.62501357e-14%" y1="49.9999972%" x2="100.000019%" y2="49.9999972%" id="linearGradient-6">
            <stop stop-color="#F87B58" offset="0%"></stop>
            <stop stop-color="#F8C548" offset="50%"></stop>
            <stop stop-color="#F89C51" offset="100%"></stop>
        </linearGradient>
        <linearGradient x1="-1.16168155e-05%" y1="49.999973%" x2="100.000005%" y2="49.999973%" id="linearGradient-7">
            <stop stop-color="#E1A1ED" offset="0%"></stop>
            <stop stop-color="#7658F4" offset="100%"></stop>
        </linearGradient>
        <linearGradient x1="0%" y1="49.9999827%" x2="100.000005%" y2="49.9999827%" id="linearGradient-8">
            <stop stop-color="#5ACEED" offset="0%"></stop>
            <stop stop-color="#538BD6" offset="100%"></stop>
        </linearGradient>
        <linearGradient x1="100%" y1="50%" x2="0.298507463%" y2="50%" id="linearGradient-9">
            <stop stop-color="#59C2E9" offset="0%"></stop>
            <stop stop-color="#5BD3EF" offset="100%"></stop>
        </linearGradient>
    </defs>
    <g id="Page-1" stroke="none" stroke-width="1" fill="none" fill-rule="evenodd">
        <g id="Home" transform="translate(-7.000000, -401.000000)">
            <g id="Group-3" transform="translate(-194.000000, 328.000000)">
                <g id="Group-2" opacity="0.286132812">
                    <g id="chair" fill-rule="nonzero">
                        <path d="M206.395781,213.701099 L222.889557,213.701099 C222.889557,213.701099 228.020954,214.434283 228.387483,218.100202 C228.754011,221.766121 228.266528,269.452399 228.266528,269.452399 L261.375035,269.05648 C261.375035,269.05648 264.67379,270.156256 264.67379,273.822175 C264.67379,277.488094 262.108091,278.954462 262.108091,278.954462 L211.80574,278.727175 L206.395781,213.701099" id="Path" fill="#BAC6F2"></path>
                        <path d="M206.395781,213.701099 C206.395781,213.701099 201.630913,214.434283 201.264385,221.766121 C200.897856,229.09796 201.264385,278.58787 201.264385,278.58787 L251.519087,278.954501 C252.247275,278.95845 252.943345,278.654948 253.43603,278.118632 C254.169087,277.31213 255.144053,276.051054 255.144053,274.929283 C255.144053,272.953352 254.410996,269.796996 250.379184,269.796996 C246.347372,269.796996 212.260235,269.430404 212.260235,269.430404 L211.527178,218.107534 C211.527178,218.107534 211.527178,214.434283 206.395781,213.701099 Z" id="Path" fill="#B1C1F2"></path>
                        <path d="M227.44184,278.829821 C227.44184,278.829821 226.554841,282.986973 229.487068,282.986973 L234.251936,282.986973 C234.618465,282.986973 236.179876,280.787422 235.215906,278.954462 C234.251936,277.121502 227.445505,278.826155 227.445505,278.826155" id="Path" fill="#BAC6F2"></path>
                        <polygon id="Path" fill="#E9EDFA" points="229.487068 283.008969 229.853596 324.411861 233.152351 324.411861 233.335615 282.770684"></polygon>
                    </g>
                    <g id="table" transform="translate(259.000000, 230.000000)" fill-rule="nonzero">
                        <polygon id="Path" fill="#E9EDFA" points="18.8206108 97.2438951 17.3476614 20.5322846 25.0806457 20.5322846 24.7124084 97.2438951"></polygon>
                        <polygon id="Path" fill="#E9EDFA" points="187.105079 20.8993258 195.574538 20.8993258 192.628639 97.6109363 187.105079 97.9779775"></polygon>
                        <polygon id="Path" fill="#E9EDFA" points="11.4558639 7.3188015 11.8241012 19.7982022 199.256911 20.8993258 199.455759 6.94074906"></polygon>
                        <polygon id="Path" fill="#BAC6F2" points="0.0405061082 0.345018727 210.672269 1.07910112 210.672269 8.0528839 0.408743455 7.6858427"></polygon>
                    </g>
                    <g id="flower" transform="translate(497.000000, 206.000000)" fill-rule="nonzero">
                        <polygon id="Path" fill="#E9EDFA" points="19.1180583 89.5289329 19.4869903 120.88564 61.5452427 120.147835 61.5452427 89.5289329"></polygon>
                        <polyline id="Path" fill="#FFFFFF" points="52.3108738 120.299085 52.336699 89.5289329 49.6730097 89.5289329"></polyline>
                        <path d="M30.0163107,89.4625305 C30.0163107,89.4625305 29.0128155,70.8661585 37.8081553,65.5871646 C46.6034951,60.3081707 39.0662136,47.9942073 40.8223301,41.4609451 C42.5784466,34.9276829 50.8757282,30.1540854 50.8757282,25.1259451 C50.8757282,20.0978049 50.1378641,6.02786585 59.671068,1.75597561 C69.2042718,-2.51591463 76.76,3.01393293 73.7458252,11.3068598 C70.7316505,19.5997866 68.4664078,29.1506707 65.2013592,32.1646037 C61.9363107,35.1785366 63.1906796,39.9558232 63.6924272,45.7365244 C64.1941748,51.5172256 59.671068,61.0644207 57.1586408,64.58375 C54.6462136,68.1030793 57.1586408,74.1346341 56.4207767,80.4170427 C56.4207767,80.4170427 55.0483495,89.2116768 53.6685437,89.5031098 C52.2887379,89.7945427 30.0163107,89.4625305 30.0163107,89.4625305 Z" id="Path" fill="#BAC6F2"></path>
                        <path d="M49.6582524,90.0343293 C49.6582524,90.0343293 50.7650485,81.1806707 40.9625243,78.6868902 C31.16,76.1931098 39.5605825,70.323872 37.5978641,67.2214024 C35.6351456,64.1189329 26.3786408,61.8464939 26.3786408,59.4744512 C26.3786408,57.1024085 27.2198058,50.3957622 16.5613592,48.3667988 C5.90291262,46.3378354 -2.51242718,48.9644207 0.85223301,52.9042988 C4.2168932,56.8441768 6.75514563,61.3890549 10.3891262,62.8203963 C14.0231068,64.2517378 12.632233,66.5094207 12.0714563,69.2725 C11.5106796,72.0355793 16.5576699,76.5583232 19.3652427,78.2294512 C22.1728155,79.9005793 19.3652427,82.7669512 20.2064078,85.755061 C20.2064078,85.755061 21.7374757,89.9347256 23.2759223,90.0749085 C24.8143689,90.2150915 49.6582524,90.0343293 49.6582524,90.0343293 Z" id="Path" fill="#BAC6F2"></path>
                        <path d="M41.4568932,90.0306402 C41.4568932,90.0306402 40.6747573,80.7859451 47.511068,78.1630488 C54.3473786,75.5401524 48.4887379,69.420061 49.8537864,66.1700305 C51.218835,62.92 57.6640777,60.5479573 57.6640777,58.0541768 C57.6640777,55.5603963 57.0774757,48.558628 64.496699,46.437439 C71.9159223,44.31625 77.7782524,47.0608841 75.4318447,51.1852134 C73.0854369,55.3095427 71.3330097,60.038872 68.791068,61.555061 C66.2491262,63.07125 67.2304854,65.4285366 67.6178641,68.3022866 C68.0052427,71.1760366 64.4930097,75.923811 62.5413592,77.6724085 C60.5897087,79.4210061 62.5413592,82.4201829 61.9547573,85.5410976 C61.9547573,85.5410976 60.8885437,89.9125915 59.8186408,90.0564634 C58.7487379,90.2003354 41.4568932,90.0306402 41.4568932,90.0306402 Z" id="Path" fill="#BAC6F2"></path>
                    </g>
                    <g id="board" transform="translate(218.000000, 118.000000)">
                        <polygon id="Path" fill="#F9FAFF" fill-rule="nonzero" points="86.01 0.268549223 86.281013 70.7976684 281.685039 70.5254404 281.685039 0.816683938"></polygon>
                        <polygon id="Path" fill="#BAC6F2" fill-rule="nonzero" points="120.978 22.3410881 120.978 31.0229534 201.000078 30.6440415 201.000078 22.3410881"></polygon>
                        <polygon id="Path" fill="#BAC6F2" fill-rule="nonzero" points="120.978 46.4921244 120.978 55.1739896 201.000078 54.7950777 201.000078 46.4921244"></polygon>
                        <ellipse id="Oval" fill="#BAC6F2" fill-rule="nonzero" cx="107.452987" cy="28.0137306" rx="6.0098961" ry="6.03683938"></ellipse>
                        <ellipse id="Oval" fill="#BAC6F2" fill-rule="nonzero" cx="107.452987" cy="50.560829" rx="6.0098961" ry="6.03683938"></ellipse>
                        <rect id="Rectangle" fill="#E9EDFA" fill-rule="nonzero" x="222.84226" y="31.8396373" width="47.5078442" height="23.279171"></rect>
                        <path d="M222.102468,54.0078238 C222.102468,54.0078238 225.801429,45.8704145 229.320935,46.7569948 C232.840442,47.6435751 233.71574,51.3554404 236.36361,49.7625389 C239.011481,48.1696373 240.721792,41.768601 243.289091,40.7679793 C246.951429,39.336943 248.16,40.9151295 253.093169,43.747772 C258.026338,46.5804145 260.121195,45.9550259 262.153792,43.8654922 C264.010597,41.9525389 267.464182,36.7618135 271.287662,34.4515544" id="Path" stroke="#BAC6F2" stroke-width="3" stroke-linecap="round" stroke-linejoin="round"></path>
                        <rect id="Rectangle" fill="#F9FAFF" fill-rule="nonzero" x="0.106207792" y="1.18088083" width="70.6831169" height="67.4941451"></rect>
                        <ellipse id="Oval" stroke="#BAC6F2" stroke-width="6" stroke-linecap="round" stroke-linejoin="round" cx="34.5211948" cy="42.040829" rx="18.2860519" ry="18.3680311"></ellipse>
                        <rect id="Rectangle" fill="#BAC6F2" fill-rule="nonzero" x="4.75005195" y="7.00803109" width="17.9820779" height="4.27103627"></rect>
                        <rect id="Rectangle" fill="#BAC6F2" fill-rule="nonzero" x="4.75005195" y="13.7070466" width="17.9820779" height="4.27103627"></rect>
                    </g>
                </g>
                <g id="map" opacity="0.0671968006" transform="translate(621.000000, 73.000000)" fill-rule="nonzero">
                    <g id="Group" transform="translate(27.000000, 233.000000)" fill="#4B44BE">
                        <path d="M11.9166667,0 L10.8333333,0 L3.39444444,0.0733333333 C3.39444444,0.0733333333 1.80555556,7.48 1.01111111,10.56 C0.938888889,10.78 0.794444444,11.2933333 0.722222222,11.66 C0.577777778,12.1733333 0.577777778,12.76 0.577777778,13.2733333 C0.722222222,16.06 1.80555556,18.48 4.26111111,19.7266667 C7.00555556,21.12 9.1,22.44 11.9166667,19.7266667 C14.7333333,17.0133333 15.1666667,15.3266667 14.0833333,10.7066667 C13,6.08666667 12.6388889,0.146666667 11.9166667,0 Z" id="Path"></path>
                        <path d="M41.7444444,9.38666667 C36.8333333,7.77333333 33.5833333,1.02666667 33.5833333,1.02666667 L25.2055556,0.513333333 C25.2055556,0.513333333 24.7722222,7.40666667 24.5555556,10.8533333 C24.2666667,15.4733333 25.0611111,17.6 28.0222222,17.3066667 C31.9944444,16.94 48.1,18.48 50.6277778,16.7933333 C53.8777778,14.6666667 46.2944444,10.8533333 41.7444444,9.38666667 Z" id="Path"></path>
                    </g>
                    <path d="M69.9648658,169.308962 C70.3241932,172.717571 67.8089011,190.70342 67.8089011,194.112028 C67.8089011,197.520637 60.3348902,234 60.3348902,234 L51.7828969,233.709906 C51.7828969,233.709906 53.7232651,179.824882 53.5076687,177.214033 C53.2920722,174.603184 42.5841143,143.345519 42.5841143,143.345519 C42.5841143,143.345519 41.7935939,151.613208 41.7935939,154.224057 C41.7935939,156.834906 38.9189743,232.98467 38.9189743,232.98467 L30.366981,232.98467 L18.1498478,120.573113 L17,111 L63.2095097,112.160377 C63.2095097,112.160377 69.5336728,165.82783 69.9648658,169.308962" id="Path" fill="url(#linearGradient-1)"></path>
                    <path d="M75.7681159,90.5960521 L71.8550725,93.9180924 L73.0869565,99.1178076 L74.7536232,101.428792 C74.6086957,101.645447 74.2463768,100.2733 75.9855072,101.284356 L79.3913043,101.067701 L82,97.6734423 C82,97.6734423 80.6231884,82.0020784 74.5362319,71.0971201 L75.7681159,90.5960521 Z M70.9855072,69.8694096 L70.6231884,67.7028616 L69.6811594,67.558425 L70.9855072,69.8694096 L70.9855072,69.8694096 Z M38.1594203,12.1670144 C40.3333333,11.2281769 48.7391304,7.25617225 49.9710145,8.12279145 C51.8550725,9.71159332 53.2318841,11.8059231 53.8115942,14.1891259 C54.173913,15.850146 55.4782609,17.8722575 55.6956522,17.5833844 C56.6376812,16.6445469 56.4202899,20.183242 56.4202899,21.266516 C56.1304348,22.7830996 55.4782609,24.2996832 54.3913043,25.4551755 C53.6666667,26.0329216 52.942029,27.9828148 52.5797101,29.4993984 C52.2173913,31.1604186 51.4927536,34.4824588 52.1449275,35.8546059 C52.8695652,37.515626 61.7101449,53.475863 69.6086957,67.6306433 L25.3333333,59.6866339 L11.3478261,89.1516868 L17.6521739,94.2069655 L15.8405797,100.201082 L14.6811594,100.417736 C14.6811594,100.417736 13.6666667,102.800939 12.5797101,101.717665 C11.7101449,100.851046 10.4057971,101.284356 9.89855072,101.50101 C9.75362319,101.573229 9.53623188,101.573229 9.39130435,101.573229 L7.94202899,101.284356 L7,93.3403463 L20.6231884,51.5259698 C20.6231884,51.5259698 37,36.8656616 37.942029,36.2879155 C38.884058,35.7101694 39.173913,31.810383 38.3043478,29.932708 C37.3623188,28.0550331 36.3478261,26.2495764 35.1884058,24.4441197 C34.4637681,23.3608457 33.5942029,19.2444045 33.5942029,17.4389479 C33.5942029,15.6334912 34.6811594,16.2834556 34.6811594,16.2834556 C34.6811594,16.2834556 35.6956522,12.7447605 37.8695652,11.8059231 C38.6666667,11.3003952 49.9710145,8.12279145 49.9710145,8.12279145 L38.1594203,12.1670144 Z" id="Shape" fill="url(#linearGradient-2)"></path>
                    <path d="M20.333585,41.7890991 C18.1735921,43.2403412 16.2295985,45.1995181 15.5096008,47.7391919 C14.7896032,50.2788656 2.54964327,74.0066746 1.97364516,75.7481652 C1.39764705,77.4896558 -0.906345403,84.3104939 0.389650351,91.7118288 C1.68564611,99.1131637 7.22962794,100.854654 8.16562488,100.854654 C8.66962323,100.854654 7.73362629,97.0088626 7.517627,94.4691889 C7.44562724,93.5258815 8.23762464,91.203894 8.45362393,90.2605867 C8.81362275,88.8819066 9.96561898,89.2447172 9.96561898,88.0111613 C9.96561898,85.6891739 15.7256001,77.63478 17.885593,73.1359294 C20.045586,68.6370787 24.0775727,67.8388955 24.7975704,65.8797186 C25.517568,63.9205418 18.7495902,106.22425 18.7495902,106.22425 C18.7495902,106.22425 18.6055907,113.625585 19.9735862,114.351206 C21.2695819,115.004265 36.7495312,120.954358 40.3495194,122.333038 C40.7095183,122.478162 41.1415168,122.260476 41.3575161,121.897665 L41.3575161,121.897665 L43.6615086,115.294514 C43.6615086,115.221952 43.7335084,115.149389 43.8055081,115.221952 C43.8775079,115.221952 43.8775079,115.294514 43.8775079,115.294514 L46.0375008,122.478162 C46.1095006,122.840973 46.5414992,123.058659 46.901498,122.986097 L65.9814355,118.850057 C65.9814355,118.850057 65.6934364,83.3671865 66.0534352,77.4170937 C66.3414343,71.6121251 65.6214366,68.3468303 66.7014331,69.9431966 C67.8534293,71.6846872 77.3573982,81.1903233 77.3573982,83.8751212 C77.2853984,85.3989255 78.0053961,86.7776055 79.2293921,87.6483508 L78.7253937,100.70953 C78.7253937,100.70953 84.125376,94.6868752 84.6293744,91.2764562 C85.1333727,87.8660371 85.349372,86.0519844 83.7653772,82.6415654 C82.1813824,79.2311464 73.3974112,48.2471266 73.3974112,48.2471266 C73.3974112,48.2471266 72.533414,44.473897 66.0534352,42.5147201 C59.5734565,40.5555433 54.7494723,37.653059 53.597476,37.7256211 C52.4454798,37.7981832 48.8454916,44.6190213 47.2614968,46.5781981 C46.5414992,47.4489434 46.6854987,47.8843161 45.7495017,49.190434 C45.2455034,49.843493 44.3095065,49.9886172 43.6615086,49.4806824 C43.5175091,49.3355582 43.3735095,49.2629961 43.3015098,49.0453098 C42.7975114,48.2471266 42.3655128,47.4489434 41.9335143,46.6507603 C41.2135166,45.1995181 35.6695348,37 35.6695348,37 C35.6695348,37 22.4935779,40.3378569 20.333585,41.7890991" id="Path" fill="url(#linearGradient-3)"></path>
                    <path d="M50.115,7.87772809 C50.115,7.87772809 38.9102461,11.7766773 36.8861615,13.6511721 C35.5849642,14.8508487 34.8620769,16.3504446 34.8620769,16.3504446 C34.8620769,16.3504446 33.7777459,15.9005658 33.7777459,17.5501212 C33.7777459,17.5501212 33.3440135,16.4254244 32.9825698,15.7506062 C32.6211261,15.0757881 31.2476401,11.4767581 32.5488374,8.62752601 C33.8500346,5.77829392 35.4403868,4.1287385 36.0909854,3.67885974 C36.741584,3.22898099 40.5005982,-0.145109644 44.1873237,0.00484993985 C47.8740492,0.154809524 50.2595775,2.77910224 50.9101761,3.37894058 C51.6330634,3.97877891 52.9342607,5.10347579 53.8017255,5.32841517 C54.6691903,5.62833433 56.8378524,8.62752601 56.9824298,10.8769198 C57.1270073,13.1263135 56.3318312,18 56.3318312,18 C56.3318312,18 56.2595425,17.3251819 55.8258101,17.7000808 C55.3920776,18.0749798 54.1631692,15.6756265 53.8017255,13.9510912 C53.4402818,12.226556 50.115,7.87772809 50.115,7.87772809 Z" id="Path" fill="url(#linearGradient-4)"></path>
                    <g id="Group" opacity="0.07" transform="translate(46.000000, 29.000000)" fill="#000000">
                        <g id="Path">
                            <path d="M7.46666667,8.89 C7.4,8.68 8.66666667,9.66 7.2,8.54 C5.13333333,7 6.06666667,0.42 6.06666667,0.42 C5.33333333,2.1 4,3.43 2.33333333,4.13 C-0.333333333,5.18 -1.13333333,4.41 2.93333333,6.86 C7,9.31 4.86666667,10.15 4.6,13.37"></path>
                        </g>
                    </g>
                    <g id="Group" opacity="0.07" transform="translate(19.000000, 61.000000)" fill="#000000">
                        <g id="Path">
                            <path d="M6.47272727,8.73670886 L0.363636364,46.1797468 C0.363636364,46.1797468 0.436363636,52.8607595 1.6,53.8151899 C2.76363636,54.7696203 6.69090909,55.4303797 7.56363636,56.0911392 C8.43636364,56.7518987 17.8909091,59.9088608 15.4181818,54.5493671 C14.8363636,53.3746835 2.10909091,46.1797468 7.85454545,38.6177215 C13.6,31.0556962 12.5090909,20.6303797 9.81818182,13.3620253 C8.21818182,9.10379747 7.41818182,4.55189873 7.63636364,1.42108547e-14 L6.47272727,8.73670886 Z"></path>
                        </g>
                    </g>
                    <path d="M36,118.982586 C36,118.982586 30.8724067,146.474321 33.5445328,157.456469 C37.5888317,174.111515 31.7390422,196.657647 31.7390422,207.494336 C31.7390422,214.476364 34.4833879,233.967858 34.6278272,241.82264 C34.7000468,244.222712 36.3610981,248.804668 35.1333645,249.895609 C34.5556075,250.331986 31.3057245,249.313774 29.5002339,248.44102 C28.5613788,248.004644 27.9836218,246.986431 28.1280611,245.968219 L29.2113554,241.240804 L30.7279675,235.0588 L20.1116829,134.473961 C20.1116829,134.473961 16.645141,112.073288 18.5950708,112 C20.5450006,111.927829 36,118.982586 36,118.982586 Z" id="Path" fill="#000000" opacity="0.07"></path>
                    <polygon id="Path" fill="#FFFFFF" points="26 69.0821918 43.25 64 44 111.191781 28.25 117"></polygon>
                    <polygon id="Path" fill="#FFFFFF" points="43 64 62 69.7777778 62 116 43.7037037 110.944444"></polygon>
                    <path d="M62,69.7777778 L81,64 L78.3692308,88.4111111 L73.6923077,91.8055556 C73.1807692,92.1666667 72.8884615,92.6722222 72.8153846,93.25 L72.6692308,94.1166667 C72.5961538,94.55 72.6692308,94.9833333 72.8153846,95.4166667 L73.6192308,97.3666667 C73.9115385,98.0166667 74.35,98.5944444 75.0076923,98.9555556 L77.7115385,100.4 L77.5653846,110.294444 L62,116 L62,69.7777778 Z" id="Path" fill="#E1E6FC"></path>
                    <path d="M25.8723404,69.601626 L8,64 L10.4822695,88.6327913 L14.9503546,92.0799458 C15.3758865,92.4390244 15.7304965,92.9417344 15.8014184,93.5162602 L15.9432624,94.3780488 C16.0141844,94.8089431 15.9432624,95.3116531 15.8014184,95.6707317 L15.0921986,97.6815718 C14.8085106,98.3279133 14.3829787,98.902439 13.7446809,99.2615176 L11.1914894,100.697832 L11.3333333,111.111111 L28,117 L25.8723404,69.601626 Z" id="Path" fill="#E1E6FC"></path>
                    <polygon id="Path" fill="#E1E6FC" points="42 64.1472393 42.4761905 64 42.8571429 64.0736196 44 112 43.4285714 111.852761 42.7619048 112"></polygon>
                </g>
                <g id="Layer_1" opacity="0.0580357143" transform="translate(734.000000, 161.000000)" fill-rule="nonzero">
                    <g id="woman">
                        <g id="Group" transform="translate(37.638095, 133.505796)" fill="#4B44BE">
                            <path d="M43.9714286,13.3505796 C41.8361905,9.81448015 40.1352381,8.87633131 34.8514286,8.73200072 C29.567619,8.58767013 22.5466667,8.65983542 22.5466667,8.65983542 L22.4742857,16.1289435 C22.4742857,16.1289435 28.3009524,19.4846297 31.4133333,21.1444315 C31.5942857,21.2526794 32.1009524,21.5413406 32.4628571,21.7578365 C33.0057143,22.010415 33.5847619,22.2269109 34.1638095,22.3712415 C37.24,23.0207292 40.0266667,22.6959853 42.0171429,20.7114397 C44.2247619,18.5103982 46.1066667,16.8866791 43.9714286,13.3505796 Z" id="Path"></path>
                            <path d="M4.12571429,6.71137245 C3.9447619,6.85570304 3.47428571,7.21652952 3.14857143,7.46910805 C2.71428571,7.86601718 2.31619048,8.33509159 1.95428571,8.80416601 C0.217142857,11.4021166 -0.542857143,14.1083152 0.579047619,16.7062658 C1.80952381,19.556795 2.64190476,21.9382497 6.6952381,21.2526794 C10.7485714,20.5671091 12.3047619,19.3402991 14.4038095,14.541307 C16.5028571,9.74231485 19.072381,3.17527299 19.0361905,3.17527299 L12.1238095,0.324743828 C12.1238095,0.324743828 6.84,4.4742483 4.12571429,6.71137245 Z" id="Path"></path>
                        </g>
                        <path d="M60.6552381,142.490375 C60.6552381,142.490375 60.7638095,150.031649 59.5333333,150.212062 C58.3028571,150.392475 41.3295238,147.938855 34.5619048,147.578029 C27.7942857,147.217202 12.4495238,142.851202 4.92190476,134.37178 C-1.59238095,127.047002 -0.579047619,118.928406 4.23428571,118.928406 C9.04761905,118.928406 13.4628571,114.851067 25.6952381,120.660374 C37.927619,126.46968 50.8838095,127.443911 58.1580952,126.866589 C65.432381,126.289267 85.807619,122.536671 87.4,121.382027 C88.992381,120.227382 96.6285714,116.907778 107.268571,118.062423 C117.908571,119.217068 112.878095,127.624325 110.634286,130.871763 C107.485714,135.382094 100.030476,140.217169 93.8057143,140.433664 C87.5809524,140.65016 60.6552381,142.490375 60.6552381,142.490375 Z" id="Path" fill="url(#linearGradient-5)"></path>
                        <path d="M48.0609524,10.6082984 C44.4780952,11.9072737 39.9180952,29.587771 39.9180952,29.587771 L39.8457143,29.5156057 L39.3390476,31.9692258 L38.7238095,35.1805814 L39.9180952,54.3765499 L51.4990476,60.1497735 L78.0990476,67.2941378 L85.4457143,77.7220229 C85.4457143,77.7220229 101.912381,94.4282888 102.021447,95.5829335 C102.129524,96.7375782 84.3238095,102.61905 82.6228571,102.871628 C78.5333333,103.485033 108.788571,96.0880905 99.0895238,84.3612301 C94.9638095,79.3457421 88.92,64.2631954 76.9409524,54.268302 C69.992381,48.4950784 71.9466667,32.0774737 69.4857143,21.6856712 C66.4095238,8.69591807 64.527619,4.79899213 61.4514286,4.79899213 C58.6647619,4.79899213 54.792381,8.11859571 48.0609524,10.6082984" id="Path" fill="url(#linearGradient-6)"></path>
                        <path d="M85.6990476,52.5724175 C80.1257143,47.4847642 78.2438095,46.2579542 73.3580952,47.9899213 C68.472381,49.7218884 66.0838095,51.3095249 59.4247619,52.3920043 C55.3352381,53.1136573 51.1009524,52.5724175 47.3009524,50.9126158 L33.5847619,52.2837564 C31.847619,52.0672605 12.3409524,88.5828998 11.8704762,96.1602558 C11.5809524,100.814917 22.1847619,107.995364 25.152381,108.717017 C26.3466667,109.005678 28.4819048,97.5313964 29.1695238,96.4849997 L24.7180952,95.1138591 C25.5142857,93.1293134 28.192381,88.2220734 29.9657143,85.5880401 C30.5085714,84.7581392 34.7428571,77.7941882 35.3219048,75.1240723 C35.4304762,75.3766508 36.0457143,80.4282215 36.6247619,82.0519406 C37.7104762,85.0468004 39.1942857,86.7426848 39.1942857,89.1241396 C39.1942857,91.5055943 38.9047619,100.959248 37.167619,105.217 C35.4304762,109.474753 32.8971429,119.325316 32.8971429,119.325316 L76.76,119.072737 C76.76,119.072737 75.167619,100.273678 75.8190476,93.8148837 C75.8190476,93.8148837 75.1314286,91.2169331 76.4342857,87.4643378 C78.5695238,81.2581224 79.1847619,72.0209646 78.8228571,70.5776587 C78.28,68.3044519 91.7066667,87.5365031 94.6380952,92.4076605 C95.8685714,94.4282888 79.1847619,98.0004709 77.8095238,99.5520247 C76.3619048,101.175744 79.2209524,105.577827 79.2209524,105.577827 C79.2209524,105.577827 108.318095,102.041727 108.173872,97.6035617 C108.028571,93.1653961 92.1771429,58.4538891 85.6990476,52.5724175 Z" id="Path" fill="url(#linearGradient-7)"></path>
                        <path d="M51.5714286,0.216495886 C51.5714286,0.216495886 43.4285714,0.541239714 41.0761905,9.05674455 C38.7238095,17.5722494 38.3980952,29.4434404 38.3257143,31.2836555 C38.2533333,33.2321184 39.1580952,44.6342351 34.7790476,49.3971446 C31.0152381,53.5105664 32.5352381,57.4796576 31.5942857,60.7631785 L31.16,66.2116583 C31.232381,66.861146 31.7028571,67.4023857 32.3180952,67.6188816 C32.8971429,67.7992948 34.9238095,66.861146 35.2857143,66.7168154 C40.352381,64.6961871 40.352381,63.072468 42.2704762,61.4487489 C43.8628571,60.1136909 48.2419048,57.0105832 49.5447619,55.7837732 C50.847619,54.5569632 51.752381,53.4744837 51.8247619,51.9229299 C52.0780952,44.0208301 50.7028571,36.7321352 48.9657143,32.871292 C47.2285714,29.0104487 43.8990476,22.4794895 46.6857143,18.1495717 C49.472381,13.819654 54.5028571,9.48973632 54.792381,8.40725689 C55.0819048,7.32477746 55.2266667,12.592844 58.3028571,14.433059 C61.3790476,16.2732741 63.9485714,18.835142 64.8895238,21.3248447 C65.6857143,23.4176383 66.7352381,26.9898204 63.84,33.1599531 C60.9447619,39.3300859 58.592381,47.2682683 62.6819048,53.1497399 C66.7714286,59.0312115 75.3847619,65.3817574 76.7961905,68.3405345 C78.3885714,71.6240555 76.8685714,79.3457421 76.5790476,84.0004036 C76.2895238,88.6550651 85.6990476,75.9178905 85.4095238,69.8560057 C85.12,63.7941209 86.1333333,61.1961703 80.3066667,51.8868472 C74.48,42.5775242 70.68,26.6289939 70.5352381,22.7681506 C70.3904762,18.9073073 68.6533333,8.190761 65.1428571,5.12373596 C62.1028571,2.52578533 61.4514286,0 55.2266667,0 C53.9961905,0 52.7657143,0.0721652952 51.5714286,0.216495886" id="Path" fill="url(#linearGradient-8)"></path>
                        <path d="M33.0057143,129.248044 L74.1180952,129.46454 C74.1180952,129.46454 69.3047619,133.217135 66.9885714,133.650127 C64.672381,134.083118 54.7561905,138.990359 51.0647619,137.114061 C48.4590476,135.706838 33.0057143,129.248044 33.0057143,129.248044 Z" id="Path" fill="#000000" opacity="0.07"></path>
                        <path d="M55.9142857,37.2012097 C55.9142857,37.2012097 59.7504762,38.1754412 61.3428571,35.938317 C64.9257143,30.8867463 61.6685714,38.500185 61.6685714,38.500185 C61.6685714,38.500185 60.6190476,41.4589621 60.6914286,42.9383506 C60.7638095,44.4177392 56.5657143,37.4177056 55.9142857,37.2012097" id="Path" fill="#000000" opacity="0.07"></path>
                        <path d="M40.5695238,63.1807159 C40.0990476,63.7580383 39.4114286,64.2271127 39.0495238,65.7065013 C38.4342857,68.087956 37.7828571,70.7580719 36.1180952,73.211692 C35.1409524,74.6549979 35.6838095,80.2478082 37.312381,83.7839077 C37.7828571,84.7942218 39.2304762,87.4282551 39.1942857,88.0416601 L39.0857143,93.1653961 L43.5009524,93.1653961 C43.5009524,93.1653961 47.2647619,93.5623052 46.4685714,90.4591975 C45.7809524,87.7169163 42.1980952,77.505527 44.6228571,75.2684029 C49.1828571,71.1188984 43.4285714,62.8198895 45.5638095,60.1497735 C47.4095238,57.8404841 50.0514286,56.1806823 50.0514286,55.4229467 C50.0514286,55.1342855 49.3638095,56.0724344 48.8933333,56.3971782 C47.9885714,57.0466658 47.5180952,57.5518229 46.7580952,58.05698 C45.9257143,58.5982197 44.6590476,59.5002859 43.8266667,60.1136909 C42.632381,61.0157571 41.5466667,62.0260712 40.5695238,63.1807159 Z" id="Path" fill="#000000" opacity="0.07"></path>
                    </g>
                    <g id="laptop" transform="translate(24.000000, 93.000000)">
                        <path d="M0.216949153,3.0039604 C0.216949153,3.0039604 0.18079096,0.293069307 2.82033898,0.183168317 C5.45988701,0.0732673267 61.360452,0.146534653 61.360452,0.146534653 C61.360452,0.146534653 63.819209,0.43960396 63.8915254,2.45445545 C63.9638722,4.46930693 63.9638722,34.3990099 63.9638722,34.3990099 C63.9638722,34.3990099 64,36.7069307 61.5774011,36.780198 C59.1548023,36.8534653 2.16949153,36.8534653 2.16949153,36.8534653 C2.16949153,36.8534653 0.0361581921,36.3039604 0.0718618853,34.1425743 C0.108474576,31.9811881 0.216949153,3.0039604 0.216949153,3.0039604 Z" id="Path" fill="#FFFFFF"></path>
                        <ellipse id="Oval" fill="url(#linearGradient-9)" cx="32.2531073" cy="18.5" rx="2.42259887" ry="2.45445545"></ellipse>
                    </g>
                </g>
            </g>
        </g>
    </g>
</svg>