<?xml version="1.0" encoding="UTF-8"?>
<svg width="109px" height="34px" viewBox="0 0 109 34" version="1.1" xmlns="http://www.w3.org/2000/svg" xmlns:xlink="http://www.w3.org/1999/xlink">
    <!-- Generator: Sketch 55.2 (78181) - https://sketchapp.com -->
    <title>Group 5</title>
    <desc>Created with Sketch.</desc>
    <defs>
        <radialGradient cx="1317.75141%" cy="100%" fx="1317.75141%" fy="100%" r="1879.59256%" gradientTransform="translate(13.177514,1.000000),scale(1.000000,0.333333),rotate(22.490878),scale(1.000000,0.712438),translate(-13.177514,-1.000000)" id="radialGradient-1">
            <stop stop-color="#4365FE" offset="0%"></stop>
            <stop stop-color="#3C6AF9" offset="31.0969172%"></stop>
            <stop stop-color="#CFF4FF" offset="100%"></stop>
        </radialGradient>
        <radialGradient cx="1317.75141%" cy="100%" fx="1317.75141%" fy="100%" r="2044.28272%" gradientTransform="translate(13.177514,1.000000),scale(1.000000,0.222222),rotate(31.841958),scale(1.000000,0.712438),translate(-13.177514,-1.000000)" id="radialGradient-2">
            <stop stop-color="#4365FE" offset="0%"></stop>
            <stop stop-color="#3C6AF9" offset="31.0969172%"></stop>
            <stop stop-color="#CFF4FF" offset="100%"></stop>
        </radialGradient>
        <radialGradient cx="1317.75141%" cy="100%" fx="1317.75141%" fy="100%" r="2332.98479%" gradientTransform="translate(13.177514,1.000000),scale(1.000000,0.153846),rotate(41.893966),scale(1.000000,0.712438),translate(-13.177514,-1.000000)" id="radialGradient-3">
            <stop stop-color="#4365FE" offset="0%"></stop>
            <stop stop-color="#3C6AF9" offset="31.0969172%"></stop>
            <stop stop-color="#CFF4FF" offset="100%"></stop>
        </radialGradient>
        <radialGradient cx="1317.75141%" cy="100%" fx="1317.75141%" fy="100%" r="2863.57099%" gradientTransform="translate(13.177514,1.000000),scale(1.000000,0.105263),rotate(52.666268),scale(1.000000,0.712438),translate(-13.177514,-1.000000)" id="radialGradient-4">
            <stop stop-color="#4365FE" offset="0%"></stop>
            <stop stop-color="#3C6AF9" offset="31.0969172%"></stop>
            <stop stop-color="#CFF4FF" offset="100%"></stop>
        </radialGradient>
        <radialGradient cx="1317.75141%" cy="100%" fx="1317.75141%" fy="100%" r="4429.06945%" gradientTransform="translate(13.177514,1.000000),scale(1.000000,0.058824),rotate(66.914861),scale(1.000000,0.712438),translate(-13.177514,-1.000000)" id="radialGradient-5">
            <stop stop-color="#4365FE" offset="0%"></stop>
            <stop stop-color="#3C6AF9" offset="31.0969172%"></stop>
            <stop stop-color="#CFF4FF" offset="100%"></stop>
        </radialGradient>
        <radialGradient cx="1317.75141%" cy="100%" fx="1317.75141%" fy="100%" r="3778.16634%" gradientTransform="translate(13.177514,1.000000),scale(1.000000,0.071429),rotate(62.635519),scale(1.000000,0.712438),translate(-13.177514,-1.000000)" id="radialGradient-6">
            <stop stop-color="#4365FE" offset="0%"></stop>
            <stop stop-color="#3C6AF9" offset="31.0969172%"></stop>
            <stop stop-color="#CFF4FF" offset="100%"></stop>
        </radialGradient>
        <radialGradient cx="1317.75141%" cy="100%" fx="1317.75141%" fy="100%" r="2769.24166%" gradientTransform="translate(13.177514,1.000000),scale(1.000000,0.111111),rotate(51.162445),scale(1.000000,0.712438),translate(-13.177514,-1.000000)" id="radialGradient-7">
            <stop stop-color="#4365FE" offset="0%"></stop>
            <stop stop-color="#3C6AF9" offset="31.0969172%"></stop>
            <stop stop-color="#CFF4FF" offset="100%"></stop>
        </radialGradient>
        <radialGradient cx="1317.75141%" cy="100%" fx="1317.75141%" fy="100%" r="2180.25522%" gradientTransform="translate(13.177514,1.000000),scale(1.000000,0.181818),rotate(37.200301),scale(1.000000,0.712438),translate(-13.177514,-1.000000)" id="radialGradient-8">
            <stop stop-color="#4365FE" offset="0%"></stop>
            <stop stop-color="#3C6AF9" offset="31.0969172%"></stop>
            <stop stop-color="#CFF4FF" offset="100%"></stop>
        </radialGradient>
        <radialGradient cx="1317.75141%" cy="100%" fx="1317.75141%" fy="100%" r="1983.67409%" gradientTransform="translate(13.177514,1.000000),scale(1.000000,0.250000),rotate(28.900281),scale(1.000000,0.712438),translate(-13.177514,-1.000000)" id="radialGradient-9">
            <stop stop-color="#4365FE" offset="0%"></stop>
            <stop stop-color="#3C6AF9" offset="31.0969172%"></stop>
            <stop stop-color="#CFF4FF" offset="100%"></stop>
        </radialGradient>
    </defs>
    <g id="Page-1" stroke="none" stroke-width="1" fill="none" fill-rule="evenodd">
        <g id="Home" transform="translate(-207.000000, -32.000000)">
            <g id="Group-5" transform="translate(207.000000, 32.000000)">
                <g id="sound-frecuency-copy" fill-rule="nonzero">
                    <path d="M1,14 C0.447714286,14 0,14.5062323 0,15.130704 L0,18.869296 C0,19.4937677 0.447714286,20 1,20 C1.55228571,20 2,19.4937677 2,18.869296 L2,15.130704 C2,14.5060708 1.55228571,14 1,14 Z" id="Path" fill="url(#radialGradient-1)"></path>
                    <path d="M5,14 C4.44771429,14 4,14.5062323 4,15.130704 L4,18.869296 C4,19.4937677 4.44771429,20 5,20 C5.55228571,20 6,19.4937677 6,18.869296 L6,15.130704 C6,14.5060708 5.55242857,14 5,14 Z" id="Path" fill="url(#radialGradient-1)"></path>
                    <path d="M10,13 C9.44771429,13 9,13.4971973 9,14.1105235 L9,20.8894765 C9,21.5028027 9.44771429,22 10,22 C10.5522857,22 11,21.5028027 11,20.8894765 L11,14.1105235 C11,13.4971973 10.5522857,13 10,13 Z" id="Path" fill="url(#radialGradient-2)"></path>
                    <path d="M14,11 C13.4477143,11 13,11.510072 13,12.1392801 L13,22.8607199 C13,23.489928 13.4477143,24 14,24 C14.5522857,24 15,23.489928 15,22.8607199 L15,12.1392801 C15,11.5099092 14.5524286,11 14,11 Z" id="Path" fill="url(#radialGradient-3)"></path>
                    <path d="M18,8 C17.4477143,8 17,8.49283255 17,9.10077468 L17,25.8992253 C17,26.5071675 17.4477143,27 18,27 C18.5522857,27 19,26.5071675 19,25.8992253 L19,9.10077468 C19,8.49283255 18.5522857,8 18,8 Z" id="Path" fill="url(#radialGradient-4)"></path>
                    <path d="M23,0 C22.4477143,0 22,0.489109829 22,1.09245973 L22,32.9075403 C22,33.5108902 22.4477143,34 23,34 C23.5522857,34 24,33.5108902 24,32.9075403 L24,1.09245973 C24,0.489109829 23.5522857,0 23,0 Z" id="Path" fill="url(#radialGradient-5)"></path>
                    <path d="M27,3 C26.4477143,3 26,3.47915256 26,4.0702195 L26,29.9297805 C26,30.5208474 26.4477143,31 27,31 C27.5522857,31 28,30.5208474 28,29.9297805 L28,4.0702195 C28,3.47899967 27.5522857,3 27,3 Z" id="Path" fill="url(#radialGradient-6)"></path>
                    <path d="M32,8 C31.4477143,8 31,8.49613467 31,9.10815018 L31,24.8918498 C31,25.5038653 31.4477143,26 32,26 C32.5522857,26 33,25.5038653 33,24.8918498 L33,9.10815018 C33,8.49613467 32.5522857,8 32,8 Z" id="Path" fill="url(#radialGradient-7)"></path>
                    <path d="M36,12 C35.4477143,12 35,12.4797117 35,13.0714683 L35,21.9285317 C35,22.5202883 35.4477143,23 36,23 C36.5522857,23 37,22.5202883 37,21.9285317 L37,13.0714683 C37,12.4797117 36.5522857,12 36,12 Z" id="Path" fill="url(#radialGradient-8)"></path>
                    <path d="M40,13 C39.4477143,13 39,13.4637896 39,14.0359052 L39,19.9640948 C39,20.5362104 39.4477143,21 40,21 C40.5522857,21 41,20.5362104 41,19.9640948 L41,14.0359052 C41,13.4637896 40.5522857,13 40,13 Z" id="Path" fill="url(#radialGradient-9)"></path>
                    <path d="M45,14 C44.4477143,14 44,14.5062323 44,15.130704 L44,18.869296 C44,19.4937677 44.4477143,20 45,20 C45.5522857,20 46,19.4937677 46,18.869296 L46,15.130704 C46,14.5060708 45.5522857,14 45,14 Z" id="Path" fill="url(#radialGradient-1)"></path>
                    <path d="M49,14 C48.4477143,14 48,14.5062323 48,15.130704 L48,18.869296 C48,19.4937677 48.4477143,20 49,20 C49.5522857,20 50,19.4937677 50,18.869296 L50,15.130704 C50,14.5060708 49.5522857,14 49,14 Z" id="Path" fill="url(#radialGradient-1)"></path>
                </g>
                <text id="sumIT-Copy" font-family="Lato-Bold, Lato" font-size="17" font-weight="bold" letter-spacing="0.979524133" fill="#4365FE">
                    <tspan x="58" y="24">sumIT</tspan>
                </text>
            </g>
        </g>
    </g>
</svg>